<svg width="1437" height="368" viewBox="0 0 1437 368" fill="none" xmlns="http://www.w3.org/2000/svg">
<g opacity="0.16">
<path d="M908.841 186.006C892.735 204.981 870.496 212.343 844.707 213.12C838.308 213.314 831.909 214.221 825.389 214.631C799.793 216.25 798.827 216.315 801.242 239.564C803.439 259.511 808.269 279.242 812.06 299.059C812.809 302.967 814.233 306.744 815.03 310.63C820.004 334.786 808.293 354.517 781.804 360.907C745.583 369.542 708.566 370.773 672.442 359.828C642.21 350.653 632.575 332.865 638.636 305.168C643.465 283.365 646.628 261.238 649.985 239.176C650.975 232.7 650.13 225.813 650.13 219.553C628.711 217.222 609.539 215.602 590.583 212.818C581.893 211.362 573.479 208.81 565.591 205.241C546.949 197.188 536.832 183.891 537.242 164.85C537.411 156.69 537.242 148.509 537.242 139.313L-1.98572 263.526L-3 252.474L178.296 210.918C296.23 183.891 414.181 156.914 532.147 129.987C539.705 128.26 543.206 124.914 545.597 118.265C567.136 58.5542 608.379 16.4588 679.637 3.85178C766.784 -11.7127 846.252 21.4887 890.538 90.2013C891.938 92.3601 893.677 94.3245 895.367 96.3969L902.611 112.091C905.026 118.222 907.441 124.353 909.687 130.505C910.628 134.952 911.594 139.399 912.536 143.846C913.18 149.286 913.824 154.726 914.468 160.166C914.13 164.57 913.776 168.959 913.405 173.334L908.841 186.006ZM558.516 138.838C547.625 178.58 558.516 190.086 594.35 197.879C598.232 198.807 602.188 199.471 606.182 199.865C621.008 200.966 635.835 201.894 650.661 202.736C658.147 203.146 664.546 205.025 665.632 212.537C666.839 220.697 668.675 229.138 667.564 237.168C664.119 261.72 659.925 286.186 654.983 310.565C651.723 326.734 655.394 336.837 672.369 342.946C708.083 355.899 744.81 354.28 781.031 344.63C793.974 341.176 799.914 331.57 798.996 319.438C798.562 313.76 796.582 308.191 795.592 302.535C791.559 277.709 785.788 252.884 784.315 227.994C782.842 203.103 786.15 201.635 813.992 199.779C830.033 199.067 846.022 197.626 861.899 195.461C888.099 191.144 899.979 177.393 896.14 154.165C876.195 33.1458 738.363 -12.6842 639.698 32.8436C600.29 51.0202 577.182 81.9333 563.055 120.143L659.861 111.292C661.551 128.346 663.024 143.414 664.545 159L558.516 138.838Z" fill="#E5E8CE"/>
<path d="M902.708 112.091L895.464 96.3967C916.158 98.8577 936.924 100.909 957.522 103.909C1113.91 126.619 1270.31 149.401 1426.72 172.255C1433.97 173.313 1437.86 175.299 1436.84 182.336C1436.21 186.654 1436.07 190.971 1435.71 195.289C1432.91 195.383 1430.11 195.304 1427.33 195.051C1331.58 180.113 1235.79 165.124 1139.98 150.085C1060.84 137.521 981.749 124.856 902.708 112.091Z" fill="#E8251D"/>
<path d="M908.841 186.006L913.453 173.334C954.503 182.163 995.553 190.798 1036.39 199.887C1079.61 209.471 1122.64 219.812 1165.91 229.289C1227.9 242.867 1290 256.014 1352.08 269.247C1379.39 275.054 1406.75 280.602 1434.18 286.279V309.917C1428.05 308.881 1423.41 308.342 1418.92 307.284C1255.69 269.031 1092.48 230.72 929.294 192.352C922.267 190.69 915.627 188.143 908.841 186.006Z" fill="#533AAE"/>
<path d="M902.708 112.091C981.814 124.741 1060.91 137.37 1140 149.977C1235.72 165.088 1331.5 180.077 1427.35 194.943C1430.13 195.196 1432.93 195.275 1435.73 195.181C1435.73 205.845 1435.73 216.516 1435.73 227.195C1434.14 220.719 1430.9 217.588 1422.45 216.25C1354.23 205.456 1286.16 193.864 1218.12 182.315C1190.56 177.652 1163.18 172.125 1135.63 167.506C1088.01 159.497 1040.3 151.898 992.632 144.105C965.056 139.6 937.488 135.067 909.928 130.505C907.368 124.266 905.123 118.222 902.708 112.091Z" fill="#F5A91F"/>
<path d="M914.516 160.166C913.888 154.726 913.244 149.286 912.584 143.846C927.507 146.588 942.454 149.265 957.377 152.114C1103.08 179.789 1248.77 207.443 1394.44 235.074C1407.96 237.622 1421.92 238.312 1435.66 239.845C1435.13 248.178 1434.59 256.511 1434.04 264.843C1401.85 258.605 1369.62 252.625 1337.45 246.105C1287.71 235.981 1238.09 225.338 1188.34 215.236C1126.07 202.564 1063.72 190.194 1001.4 177.695L914.516 160.166Z" fill="#43C225"/>
<path d="M1435.75 239.845C1422.01 238.312 1408.06 237.686 1394.54 235.074C1248.75 207.586 1103.06 179.933 957.474 152.114C942.551 149.265 927.604 146.588 912.681 143.846C911.739 139.399 910.773 134.952 909.831 130.505C937.375 135.038 964.943 139.572 992.535 144.105C1040.2 151.898 1087.92 159.497 1135.53 167.506C1163.09 172.126 1190.47 177.652 1218.02 182.315C1286.07 193.864 1354.14 205.392 1422.35 216.25C1430.73 217.588 1434.04 220.762 1435.63 227.195L1435.75 239.845Z" fill="#F2F524"/>
<path d="M914.516 160.166L1001.45 177.695C1063.77 190.194 1126.12 202.564 1188.39 215.235C1238.13 225.338 1287.76 235.981 1337.5 246.105C1369.62 252.581 1401.85 258.604 1434.09 264.843C1434.09 271.988 1434.09 279.134 1434.09 286.279C1406.75 280.602 1379.4 275.054 1351.99 269.247C1289.91 256.014 1227.8 242.867 1165.81 229.289C1122.54 219.812 1079.51 209.472 1036.29 199.887C995.36 190.799 954.334 182.163 913.357 173.334C913.775 168.959 914.162 164.57 914.516 160.166Z" fill="#2490B7"/>
</g>
</svg>
