<svg width="25" height="19" viewBox="0 0 25 19" fill="none" xmlns="http://www.w3.org/2000/svg">
<path d="M20.6471 1.6556C19.1174 0.953722 17.4771 0.436607 15.762 0.140433C15.7307 0.134717 15.6995 0.149002 15.6835 0.177572C15.4725 0.552787 15.2388 1.04229 15.0752 1.42703C13.2305 1.15086 11.3953 1.15086 9.5884 1.42703C9.42473 1.03373 9.18256 0.552787 8.97065 0.177572C8.95456 0.149955 8.92336 0.13567 8.89213 0.140433C7.17799 0.43566 5.53764 0.952776 4.00701 1.6556C3.99376 1.66132 3.9824 1.67085 3.97487 1.68322C0.86347 6.33158 0.0111279 10.8657 0.429258 15.3436C0.43115 15.3655 0.443448 15.3864 0.460476 15.3998C2.51329 16.9073 4.50179 17.8225 6.45336 18.4291C6.48459 18.4387 6.51768 18.4272 6.53756 18.4015C6.9992 17.7711 7.41072 17.1064 7.76355 16.4073C7.78438 16.3664 7.7645 16.3178 7.72194 16.3016C7.06921 16.054 6.44768 15.7521 5.84981 15.4093C5.80252 15.3817 5.79873 15.314 5.84224 15.2817C5.96805 15.1874 6.0939 15.0893 6.21403 14.9902C6.23577 14.9722 6.26606 14.9683 6.29161 14.9798C10.2194 16.773 14.4716 16.773 18.353 14.9798C18.3786 14.9674 18.4089 14.9712 18.4316 14.9893C18.5517 15.0883 18.6775 15.1874 18.8043 15.2817C18.8478 15.314 18.845 15.3817 18.7977 15.4093C18.1998 15.7588 17.5783 16.054 16.9246 16.3007C16.882 16.3169 16.8631 16.3664 16.8839 16.4073C17.2443 17.1054 17.6558 17.7701 18.109 18.4006C18.1279 18.4272 18.1619 18.4387 18.1932 18.4291C20.1542 17.8225 22.1427 16.9073 24.1955 15.3998C24.2135 15.3864 24.2248 15.3664 24.2267 15.3445C24.7272 10.1676 23.3886 5.67067 20.6783 1.68417C20.6717 1.67085 20.6603 1.66132 20.6471 1.6556ZM8.3501 12.617C7.16758 12.617 6.19321 11.5314 6.19321 10.1981C6.19321 8.8648 7.14868 7.77915 8.3501 7.77915C9.56095 7.77915 10.5259 8.87433 10.507 10.1981C10.507 11.5314 9.55149 12.617 8.3501 12.617ZM16.3248 12.617C15.1423 12.617 14.168 11.5314 14.168 10.1981C14.168 8.8648 15.1234 7.77915 16.3248 7.77915C17.5357 7.77915 18.5006 8.87433 18.4817 10.1981C18.4817 11.5314 17.5357 12.617 16.3248 12.617Z" fill="#933E97"/>
</svg>
