<svg width="24" height="17" viewBox="0 0 24 17" fill="none" xmlns="http://www.w3.org/2000/svg">
<path d="M20.317 2.0963C18.7873 1.47873 17.147 1.02374 15.4319 0.763148C15.4007 0.758118 15.3695 0.770687 15.3534 0.795825C15.1424 1.12596 14.9087 1.55666 14.7451 1.89518C12.9004 1.65219 11.0652 1.65219 9.25832 1.89518C9.09465 1.54913 8.85248 1.12596 8.64057 0.795825C8.62449 0.771526 8.59328 0.758957 8.56205 0.763148C6.84791 1.02291 5.20756 1.4779 3.67693 2.0963C3.66368 2.10132 3.65233 2.10971 3.64479 2.1206C0.533392 6.21054 -0.31895 10.1999 0.0991801 14.1399C0.101072 14.1592 0.11337 14.1776 0.130398 14.1893C2.18321 15.5158 4.17171 16.321 6.12328 16.8548C6.15451 16.8632 6.18761 16.8531 6.20748 16.8305C6.66913 16.2758 7.08064 15.6909 7.43348 15.0759C7.4543 15.0398 7.43442 14.9971 7.39186 14.9828C6.73913 14.765 6.1176 14.4994 5.51973 14.1977C5.47244 14.1734 5.46865 14.1139 5.51216 14.0854C5.63797 14.0025 5.76382 13.9162 5.88396 13.829C5.90569 13.8131 5.93598 13.8097 5.96153 13.8198C9.88928 15.3976 14.1415 15.3976 18.023 13.8198C18.0485 13.8089 18.0788 13.8123 18.1015 13.8282C18.2216 13.9153 18.3475 14.0025 18.4742 14.0854C18.5177 14.1139 18.5149 14.1734 18.4676 14.1977C17.8697 14.5052 17.2482 14.765 16.5945 14.982C16.552 14.9963 16.533 15.0398 16.5538 15.0759C16.9143 15.6901 17.3258 16.2749 17.7789 16.8296C17.7978 16.8531 17.8319 16.8632 17.8631 16.8548C19.8241 16.321 21.8126 15.5158 23.8654 14.1893C23.8834 14.1776 23.8948 14.16 23.8967 14.1407C24.3971 9.58572 23.0585 5.62902 20.3482 2.12143C20.3416 2.10971 20.3303 2.10132 20.317 2.0963ZM8.02002 11.7409C6.8375 11.7409 5.86313 10.7857 5.86313 9.61254C5.86313 8.43943 6.8186 7.48421 8.02002 7.48421C9.23087 7.48421 10.1958 8.44782 10.1769 9.61254C10.1769 10.7857 9.22141 11.7409 8.02002 11.7409ZM15.9947 11.7409C14.8123 11.7409 13.8379 10.7857 13.8379 9.61254C13.8379 8.43943 14.7933 7.48421 15.9947 7.48421C17.2056 7.48421 18.1705 8.44782 18.1516 9.61254C18.1516 10.7857 17.2056 11.7409 15.9947 11.7409Z" fill="white"/>
</svg>
