<svg width="21" height="18" viewBox="0 0 21 18" fill="none" xmlns="http://www.w3.org/2000/svg">
<path d="M18.5016 5.14764C18.5147 5.33026 18.5147 5.51292 18.5147 5.69554C18.5147 11.2657 14.2751 17.6838 6.52643 17.6838C4.1392 17.6838 1.92158 16.9924 0.0561523 15.7923C0.395332 15.8314 0.721422 15.8445 1.07365 15.8445C3.0434 15.8445 4.85667 15.1792 6.30466 14.0443C4.45228 14.0051 2.89993 12.792 2.36508 11.1222C2.626 11.1613 2.88688 11.1874 3.16085 11.1874C3.53914 11.1874 3.91747 11.1352 4.26966 11.044C2.33902 10.6526 0.890991 8.95675 0.890991 6.9087V6.85654C1.4519 7.16962 2.1042 7.36529 2.79553 7.39135C1.66062 6.63473 0.917091 5.34331 0.917091 3.88227C0.917091 3.09959 1.12577 2.38212 1.49105 1.75596C3.5652 4.31276 6.68295 5.98247 10.1789 6.16513C10.1137 5.85206 10.0746 5.52597 10.0746 5.19984C10.0746 2.87782 11.9531 0.986328 14.2881 0.986328C15.5013 0.986328 16.597 1.49508 17.3667 2.31691C18.3189 2.13429 19.2321 1.78206 20.0409 1.29941C19.7278 2.2778 19.0625 3.09963 18.1885 3.62139C19.0364 3.53012 19.8583 3.29526 20.6149 2.96917C20.041 3.80401 19.3235 4.54754 18.5016 5.14764Z" fill="#189CD7"/>
</svg>
