<svg width="20" height="18" viewBox="0 0 20 18" fill="none" xmlns="http://www.w3.org/2000/svg">
<path d="M17.9445 4.92621C17.9571 5.10387 17.9571 5.28156 17.9571 5.45922C17.9571 10.878 13.8328 17.1217 6.29468 17.1217C3.97233 17.1217 1.81498 16.4491 0.000244141 15.2816C0.330206 15.3197 0.647434 15.3323 0.990092 15.3323C2.90631 15.3323 4.6703 14.6852 6.07894 13.5811C4.2769 13.543 2.76674 12.3628 2.24642 10.7384C2.50025 10.7765 2.75404 10.8019 3.02057 10.8019C3.38858 10.8019 3.75663 10.7511 4.09924 10.6623C2.22107 10.2815 0.812396 8.63181 0.812396 6.63942V6.58868C1.35806 6.89325 1.99263 7.0836 2.66518 7.10895C1.56111 6.3729 0.837786 5.11656 0.837786 3.69523C0.837786 2.93382 1.04079 2.23585 1.39615 1.6267C3.41393 4.11402 6.44695 5.73836 9.84794 5.91606C9.7845 5.61149 9.74641 5.29426 9.74641 4.97699C9.74641 2.71808 11.5738 0.877991 13.8454 0.877991C15.0256 0.877991 16.0916 1.37291 16.8403 2.17241C17.7667 1.99475 18.655 1.6521 19.4419 1.18256C19.1373 2.13436 18.4901 2.93386 17.6398 3.44144C18.4647 3.35265 19.2642 3.12417 20.0002 2.80694C19.442 3.6191 18.7439 4.34242 17.9445 4.92621Z" fill="white"/>
</svg>
